<svg width="1440" height="1004" viewBox="0 0 1440 1004" fill="none" xmlns="http://www.w3.org/2000/svg">
<g opacity="0.4">
<path d="M0 60H1440" stroke="url(#paint0_linear_2_120)"/>
<path d="M0 120H1440" stroke="url(#paint1_linear_2_120)"/>
<path d="M0 180H1440" stroke="url(#paint2_linear_2_120)"/>
<path d="M0 240H1440" stroke="url(#paint3_linear_2_120)"/>
<path d="M0 300H1440" stroke="url(#paint4_linear_2_120)"/>
<path d="M0 360H1440" stroke="url(#paint5_linear_2_120)"/>
<path d="M0 420H1440" stroke="url(#paint6_linear_2_120)"/>
<path d="M0 480H1440" stroke="url(#paint7_linear_2_120)"/>
<path d="M0 540H1440" stroke="url(#paint8_linear_2_120)"/>
<path d="M0 600H1440" stroke="url(#paint9_linear_2_120)"/>
<path d="M0 660H1440" stroke="url(#paint10_linear_2_120)"/>
<path d="M0 720H1440" stroke="url(#paint11_linear_2_120)"/>
<path d="M0 780H1440" stroke="url(#paint12_linear_2_120)"/>
<path d="M0 840H1440" stroke="url(#paint13_linear_2_120)"/>
<path d="M0 900H1440" stroke="url(#paint14_linear_2_120)"/>
<path d="M0 960H1440" stroke="url(#paint15_linear_2_120)"/>
<path d="M60 0V1004" stroke="url(#paint16_linear_2_120)"/>
<path d="M120 0V1004" stroke="url(#paint17_linear_2_120)"/>
<path d="M180 0V1004" stroke="url(#paint18_linear_2_120)"/>
<path d="M240 0V1004" stroke="url(#paint19_linear_2_120)"/>
<path d="M300 0V1004" stroke="url(#paint20_linear_2_120)"/>
<path d="M360 0V1004" stroke="url(#paint21_linear_2_120)"/>
<path d="M420 0V1004" stroke="url(#paint22_linear_2_120)"/>
<path d="M480 0V1004" stroke="url(#paint23_linear_2_120)"/>
<path d="M540 0V1004" stroke="url(#paint24_linear_2_120)"/>
<path d="M600 0V1004" stroke="url(#paint25_linear_2_120)"/>
<path d="M660 0V1004" stroke="url(#paint26_linear_2_120)"/>
<path d="M720 0V1004" stroke="url(#paint27_linear_2_120)"/>
<path d="M780 0V1004" stroke="url(#paint28_linear_2_120)"/>
<path d="M840 0V1004" stroke="url(#paint29_linear_2_120)"/>
<path d="M900 0V1004" stroke="url(#paint30_linear_2_120)"/>
<path d="M960 0V1004" stroke="url(#paint31_linear_2_120)"/>
<path d="M1020 0V1004" stroke="url(#paint32_linear_2_120)"/>
<path d="M1080 0V1004" stroke="url(#paint33_linear_2_120)"/>
<path d="M1140 0V1004" stroke="url(#paint34_linear_2_120)"/>
<path d="M1200 0V1004" stroke="url(#paint35_linear_2_120)"/>
<path d="M1260 0V1004" stroke="url(#paint36_linear_2_120)"/>
<path d="M1320 0V1004" stroke="url(#paint37_linear_2_120)"/>
<path d="M1380 0V1004" stroke="url(#paint38_linear_2_120)"/>
<path d="M1440 0V1004" stroke="url(#paint39_linear_2_120)"/>
</g>
<defs>
<linearGradient id="paint0_linear_2_120" x1="720" y1="60" x2="720" y2="61" gradientUnits="userSpaceOnUse">
<stop stop-color="#D6D6D6"/>
<stop offset="1" stop-color="#D6D6D6" stop-opacity="0"/>
</linearGradient>
<linearGradient id="paint1_linear_2_120" x1="720" y1="120" x2="720" y2="121" gradientUnits="userSpaceOnUse">
<stop stop-color="#D6D6D6"/>
<stop offset="1" stop-color="#D6D6D6" stop-opacity="0"/>
</linearGradient>
<linearGradient id="paint2_linear_2_120" x1="720" y1="180" x2="720" y2="181" gradientUnits="userSpaceOnUse">
<stop stop-color="#D6D6D6"/>
<stop offset="1" stop-color="#D6D6D6" stop-opacity="0"/>
</linearGradient>
<linearGradient id="paint3_linear_2_120" x1="720" y1="240" x2="720" y2="241" gradientUnits="userSpaceOnUse">
<stop stop-color="#D6D6D6"/>
<stop offset="1" stop-color="#D6D6D6" stop-opacity="0"/>
</linearGradient>
<linearGradient id="paint4_linear_2_120" x1="720" y1="300" x2="720" y2="301" gradientUnits="userSpaceOnUse">
<stop stop-color="#D6D6D6"/>
<stop offset="1" stop-color="#D6D6D6" stop-opacity="0"/>
</linearGradient>
<linearGradient id="paint5_linear_2_120" x1="720" y1="360" x2="720" y2="361" gradientUnits="userSpaceOnUse">
<stop stop-color="#D6D6D6"/>
<stop offset="1" stop-color="#D6D6D6" stop-opacity="0"/>
</linearGradient>
<linearGradient id="paint6_linear_2_120" x1="720" y1="420" x2="720" y2="421" gradientUnits="userSpaceOnUse">
<stop stop-color="#D6D6D6"/>
<stop offset="1" stop-color="#D6D6D6" stop-opacity="0"/>
</linearGradient>
<linearGradient id="paint7_linear_2_120" x1="720" y1="480" x2="720" y2="481" gradientUnits="userSpaceOnUse">
<stop stop-color="#D6D6D6"/>
<stop offset="1" stop-color="#D6D6D6" stop-opacity="0"/>
</linearGradient>
<linearGradient id="paint8_linear_2_120" x1="720" y1="540" x2="720" y2="541" gradientUnits="userSpaceOnUse">
<stop stop-color="#D6D6D6"/>
<stop offset="1" stop-color="#D6D6D6" stop-opacity="0"/>
</linearGradient>
<linearGradient id="paint9_linear_2_120" x1="720" y1="600" x2="720" y2="601" gradientUnits="userSpaceOnUse">
<stop stop-color="#D6D6D6"/>
<stop offset="1" stop-color="#D6D6D6" stop-opacity="0"/>
</linearGradient>
<linearGradient id="paint10_linear_2_120" x1="720" y1="660" x2="720" y2="661" gradientUnits="userSpaceOnUse">
<stop stop-color="#D6D6D6"/>
<stop offset="1" stop-color="#D6D6D6" stop-opacity="0"/>
</linearGradient>
<linearGradient id="paint11_linear_2_120" x1="720" y1="720" x2="720" y2="721" gradientUnits="userSpaceOnUse">
<stop stop-color="#D6D6D6"/>
<stop offset="1" stop-color="#D6D6D6" stop-opacity="0"/>
</linearGradient>
<linearGradient id="paint12_linear_2_120" x1="720" y1="780" x2="720" y2="781" gradientUnits="userSpaceOnUse">
<stop stop-color="#D6D6D6"/>
<stop offset="1" stop-color="#D6D6D6" stop-opacity="0"/>
</linearGradient>
<linearGradient id="paint13_linear_2_120" x1="720" y1="840" x2="720" y2="841" gradientUnits="userSpaceOnUse">
<stop stop-color="#D6D6D6"/>
<stop offset="1" stop-color="#D6D6D6" stop-opacity="0"/>
</linearGradient>
<linearGradient id="paint14_linear_2_120" x1="720" y1="900" x2="720" y2="901" gradientUnits="userSpaceOnUse">
<stop stop-color="#D6D6D6"/>
<stop offset="1" stop-color="#D6D6D6" stop-opacity="0"/>
</linearGradient>
<linearGradient id="paint15_linear_2_120" x1="720" y1="960" x2="720" y2="961" gradientUnits="userSpaceOnUse">
<stop stop-color="#D6D6D6"/>
<stop offset="1" stop-color="#D6D6D6" stop-opacity="0"/>
</linearGradient>
<linearGradient id="paint16_linear_2_120" x1="60.5" y1="0" x2="60.5" y2="1004" gradientUnits="userSpaceOnUse">
<stop stop-color="#D6D6D6"/>
<stop offset="1" stop-color="#D6D6D6" stop-opacity="0"/>
</linearGradient>
<linearGradient id="paint17_linear_2_120" x1="120.5" y1="0" x2="120.5" y2="1004" gradientUnits="userSpaceOnUse">
<stop stop-color="#D6D6D6"/>
<stop offset="1" stop-color="#D6D6D6" stop-opacity="0"/>
</linearGradient>
<linearGradient id="paint18_linear_2_120" x1="180.5" y1="0" x2="180.5" y2="1004" gradientUnits="userSpaceOnUse">
<stop stop-color="#D6D6D6"/>
<stop offset="1" stop-color="#D6D6D6" stop-opacity="0"/>
</linearGradient>
<linearGradient id="paint19_linear_2_120" x1="240.5" y1="0" x2="240.5" y2="1004" gradientUnits="userSpaceOnUse">
<stop stop-color="#D6D6D6"/>
<stop offset="1" stop-color="#D6D6D6" stop-opacity="0"/>
</linearGradient>
<linearGradient id="paint20_linear_2_120" x1="300.5" y1="0" x2="300.5" y2="1004" gradientUnits="userSpaceOnUse">
<stop stop-color="#D6D6D6"/>
<stop offset="1" stop-color="#D6D6D6" stop-opacity="0"/>
</linearGradient>
<linearGradient id="paint21_linear_2_120" x1="360.5" y1="0" x2="360.5" y2="1004" gradientUnits="userSpaceOnUse">
<stop stop-color="#D6D6D6"/>
<stop offset="1" stop-color="#D6D6D6" stop-opacity="0"/>
</linearGradient>
<linearGradient id="paint22_linear_2_120" x1="420.5" y1="0" x2="420.5" y2="1004" gradientUnits="userSpaceOnUse">
<stop stop-color="#D6D6D6"/>
<stop offset="1" stop-color="#D6D6D6" stop-opacity="0"/>
</linearGradient>
<linearGradient id="paint23_linear_2_120" x1="480.5" y1="0" x2="480.5" y2="1004" gradientUnits="userSpaceOnUse">
<stop stop-color="#D6D6D6"/>
<stop offset="1" stop-color="#D6D6D6" stop-opacity="0"/>
</linearGradient>
<linearGradient id="paint24_linear_2_120" x1="540.5" y1="0" x2="540.5" y2="1004" gradientUnits="userSpaceOnUse">
<stop stop-color="#D6D6D6"/>
<stop offset="1" stop-color="#D6D6D6" stop-opacity="0"/>
</linearGradient>
<linearGradient id="paint25_linear_2_120" x1="600.5" y1="0" x2="600.5" y2="1004" gradientUnits="userSpaceOnUse">
<stop stop-color="#D6D6D6"/>
<stop offset="1" stop-color="#D6D6D6" stop-opacity="0"/>
</linearGradient>
<linearGradient id="paint26_linear_2_120" x1="660.5" y1="0" x2="660.5" y2="1004" gradientUnits="userSpaceOnUse">
<stop stop-color="#D6D6D6"/>
<stop offset="1" stop-color="#D6D6D6" stop-opacity="0"/>
</linearGradient>
<linearGradient id="paint27_linear_2_120" x1="720.5" y1="0" x2="720.5" y2="1004" gradientUnits="userSpaceOnUse">
<stop stop-color="#D6D6D6"/>
<stop offset="1" stop-color="#D6D6D6" stop-opacity="0"/>
</linearGradient>
<linearGradient id="paint28_linear_2_120" x1="780.5" y1="0" x2="780.5" y2="1004" gradientUnits="userSpaceOnUse">
<stop stop-color="#D6D6D6"/>
<stop offset="1" stop-color="#D6D6D6" stop-opacity="0"/>
</linearGradient>
<linearGradient id="paint29_linear_2_120" x1="840.5" y1="0" x2="840.5" y2="1004" gradientUnits="userSpaceOnUse">
<stop stop-color="#D6D6D6"/>
<stop offset="1" stop-color="#D6D6D6" stop-opacity="0"/>
</linearGradient>
<linearGradient id="paint30_linear_2_120" x1="900.5" y1="0" x2="900.5" y2="1004" gradientUnits="userSpaceOnUse">
<stop stop-color="#D6D6D6"/>
<stop offset="1" stop-color="#D6D6D6" stop-opacity="0"/>
</linearGradient>
<linearGradient id="paint31_linear_2_120" x1="960.5" y1="0" x2="960.5" y2="1004" gradientUnits="userSpaceOnUse">
<stop stop-color="#D6D6D6"/>
<stop offset="1" stop-color="#D6D6D6" stop-opacity="0"/>
</linearGradient>
<linearGradient id="paint32_linear_2_120" x1="1020.5" y1="0" x2="1020.5" y2="1004" gradientUnits="userSpaceOnUse">
<stop stop-color="#D6D6D6"/>
<stop offset="1" stop-color="#D6D6D6" stop-opacity="0"/>
</linearGradient>
<linearGradient id="paint33_linear_2_120" x1="1080.5" y1="0" x2="1080.5" y2="1004" gradientUnits="userSpaceOnUse">
<stop stop-color="#D6D6D6"/>
<stop offset="1" stop-color="#D6D6D6" stop-opacity="0"/>
</linearGradient>
<linearGradient id="paint34_linear_2_120" x1="1140.5" y1="0" x2="1140.5" y2="1004" gradientUnits="userSpaceOnUse">
<stop stop-color="#D6D6D6"/>
<stop offset="1" stop-color="#D6D6D6" stop-opacity="0"/>
</linearGradient>
<linearGradient id="paint35_linear_2_120" x1="1200.5" y1="0" x2="1200.5" y2="1004" gradientUnits="userSpaceOnUse">
<stop stop-color="#D6D6D6"/>
<stop offset="1" stop-color="#D6D6D6" stop-opacity="0"/>
</linearGradient>
<linearGradient id="paint36_linear_2_120" x1="1260.5" y1="0" x2="1260.5" y2="1004" gradientUnits="userSpaceOnUse">
<stop stop-color="#D6D6D6"/>
<stop offset="1" stop-color="#D6D6D6" stop-opacity="0"/>
</linearGradient>
<linearGradient id="paint37_linear_2_120" x1="1320.5" y1="0" x2="1320.5" y2="1004" gradientUnits="userSpaceOnUse">
<stop stop-color="#D6D6D6"/>
<stop offset="1" stop-color="#D6D6D6" stop-opacity="0"/>
</linearGradient>
<linearGradient id="paint38_linear_2_120" x1="1380.5" y1="0" x2="1380.5" y2="1004" gradientUnits="userSpaceOnUse">
<stop stop-color="#D6D6D6"/>
<stop offset="1" stop-color="#D6D6D6" stop-opacity="0"/>
</linearGradient>
<linearGradient id="paint39_linear_2_120" x1="1440.5" y1="0" x2="1440.5" y2="1004" gradientUnits="userSpaceOnUse">
<stop stop-color="#D6D6D6"/>
<stop offset="1" stop-color="#D6D6D6" stop-opacity="0"/>
</linearGradient>
</defs>
</svg>
